<svg width="140" height="60" viewBox="10 10 120 60" fill="none" xmlns="http://www.w3.org/2000/svg">
<mask id="mask0_785_19160" style="mask-type:alpha" maskUnits="userSpaceOnUse" x="0" y="0" width="140" height="70">
<rect width="140" height="700" fill="#C4C4C4"/>
</mask>
<g mask="url(#mask0_785_19160)">
<path d="M31.4261 16.6737C0.329621 4.61951 3.42559 68.6683 27.2321 82.5183C57.9779 100.405 109.482 107.354 140.595 90.0931C163.027 77.6479 154.087 37.0384 129.718 27.1779C98.2575 14.4483 77.4313 34.507 31.4261 16.6737Z" fill="#F2F9FF"/>
</g>
<path d="M26.323 28.0183C24.2206 28.3561 22.5038 29.7132 21.4135 31.8967C19.1484 36.4385 19.6484 43.8634 22.6062 49.6236C25.4857 55.227 30.4434 58.9304 36.2687 59.8231C37.3409 59.992 39.5638 60.0523 40.6722 59.9497C43.5818 59.6783 46.2565 58.8701 49.3347 57.3501C55.9913 54.0508 61.4611 48.7912 63.0996 44.1107C63.7442 42.265 63.8104 40.4374 63.2864 38.8813C62.9671 37.9343 62.5454 37.2528 61.8888 36.6255C61.202 35.9801 60.449 35.5458 59.3587 35.1899C57.8527 34.6953 56.1057 34.4842 52.6479 34.3696C47.4673 34.2008 46.6902 34.1585 44.7565 33.9414C41.7626 33.6036 39.2566 32.9703 36.9554 31.957C36.1422 31.6011 35.4133 31.197 34.0639 30.3707C32.6784 29.5142 31.3651 28.8628 30.3471 28.519C29.1302 28.1148 28.6784 28.0304 27.5278 28.0063C26.9676 27.9942 26.4254 28.0002 26.323 28.0183Z" fill="#0094FF"/>
<path d="M40.5568 42.1444H44.6801V49.5122H42.9129V43.8823H40.5568V42.1444ZM39.1688 47.3693C38.9151 47.1164 38.7725 46.7734 38.7723 46.4157V39.312H37.0051V46.4157C37.006 47.2406 37.335 48.0315 37.9198 48.6148C38.5047 49.1982 39.2976 49.5263 40.1248 49.5273H41.5538V47.7649H40.1248C39.7661 47.7645 39.4223 47.6222 39.1688 47.3693ZM35.9407 42.1433H33.7823L30.6398 46.6114V39.312H28.8727V49.4131H30.8273L32.5579 46.9521L34.289 49.4131H36.4472L33.6373 45.4183L35.9407 42.1433ZM44.4681 39.2271C44.2835 39.043 44.0388 38.9312 43.7784 38.9121C43.5181 38.8929 43.2595 38.9677 43.0498 39.1228C42.8401 39.2779 42.6933 39.503 42.6361 39.757C42.579 40.0111 42.6152 40.2771 42.7383 40.5067C42.8613 40.7363 43.063 40.9142 43.3066 41.0079C43.5501 41.1016 43.8193 41.1049 44.0651 41.0172C44.3109 40.9295 44.5169 40.7566 44.6456 40.5301C44.7743 40.3035 44.8171 40.0384 44.7661 39.7831C44.7241 39.5724 44.6204 39.379 44.4681 39.2271ZM50.6092 45.7601L53.1523 42.1444H50.9941L49.5298 44.2258L48.0659 42.1444H45.9077L48.4508 45.7601L45.885 49.4082H48.0434L49.5298 47.2948L51.021 49.4141H53.1794L50.6092 45.7601Z" fill="white"/>
<path d="M69.5678 51.0837V40.7426H71.3236V44.0192L71.0886 44.0053C71.1254 43.2496 71.2821 42.6136 71.5586 42.0975C71.8351 41.5721 72.2084 41.1804 72.6784 40.9223C73.1485 40.6551 73.6785 40.5214 74.2683 40.5214C74.7937 40.5214 75.2683 40.6182 75.6923 40.8117C76.1255 41.0053 76.4941 41.2772 76.7983 41.6274C77.1117 41.9684 77.3467 42.374 77.5034 42.844C77.6693 43.3049 77.7522 43.8118 77.7522 44.3648V44.6828C77.7522 45.2265 77.6739 45.7381 77.5172 46.2173C77.3605 46.6874 77.1301 47.0975 76.8259 47.4478C76.531 47.798 76.167 48.0745 75.7338 48.2773C75.3098 48.4708 74.8213 48.5676 74.2683 48.5676C73.6969 48.5676 73.1808 48.4524 72.7199 48.222C72.2683 47.9823 71.9042 47.6229 71.6277 47.1436C71.3512 46.6551 71.1992 46.0376 71.1715 45.2911L71.7798 46.1206V51.0837H69.5678ZM73.6462 46.715C74.0241 46.715 74.3513 46.6229 74.6278 46.4385C74.9135 46.2542 75.1347 45.9961 75.2914 45.6643C75.4481 45.3325 75.5264 44.95 75.5264 44.5169C75.5264 44.0837 75.4481 43.7058 75.2914 43.3832C75.1347 43.0606 74.9181 42.8118 74.6416 42.6367C74.3651 42.4523 74.0333 42.3601 73.6462 42.3601C73.3144 42.3601 73.001 42.4385 72.7061 42.5952C72.4112 42.7519 72.1715 42.9777 71.9872 43.2726C71.8121 43.5583 71.7245 43.9086 71.7245 44.3233V44.8348C71.7245 45.2311 71.8167 45.5722 72.001 45.8579C72.1946 46.1344 72.4388 46.3464 72.7337 46.4938C73.0287 46.6413 73.3328 46.715 73.6462 46.715ZM83.8646 48.3187V46.0791H83.4913V43.6459C83.4913 43.2588 83.3992 42.9684 83.2148 42.7749C83.0305 42.5813 82.7356 42.4846 82.33 42.4846C82.1273 42.4846 81.86 42.4892 81.5282 42.4984C81.1964 42.5076 80.8554 42.5214 80.5051 42.5399C80.1549 42.5583 79.8369 42.5767 79.5512 42.5952V40.7288C79.7632 40.7104 80.012 40.6919 80.2977 40.6735C80.5835 40.6551 80.8784 40.6412 81.1825 40.632C81.4867 40.6228 81.7724 40.6182 82.0397 40.6182C82.8139 40.6182 83.4637 40.7288 83.989 40.95C84.5236 41.1712 84.9291 41.5076 85.2056 41.9592C85.4821 42.4016 85.6204 42.9731 85.6204 43.6735V48.3187H83.8646ZM81.4452 48.5123C80.9014 48.5123 80.4222 48.4155 80.0074 48.222C79.6019 48.0284 79.2839 47.7519 79.0535 47.3925C78.8231 47.0238 78.7079 46.586 78.7079 46.0791C78.7079 45.5261 78.8507 45.0745 79.1364 44.7242C79.4222 44.3648 79.8231 44.1021 80.3392 43.9362C80.8554 43.7611 81.4498 43.6735 82.1226 43.6735H83.7402V44.904H82.1088C81.7217 44.904 81.4222 45.0007 81.2102 45.1943C81.0074 45.3786 80.906 45.6321 80.906 45.9547C80.906 46.2588 81.0074 46.5077 81.2102 46.7012C81.4222 46.8855 81.7217 46.9777 82.1088 46.9777C82.3577 46.9777 82.5789 46.9362 82.7724 46.8533C82.9752 46.7611 83.1411 46.609 83.2701 46.3971C83.3992 46.1851 83.4729 45.8901 83.4913 45.5123L84.0167 46.0653C83.9706 46.5906 83.8416 47.033 83.6296 47.3925C83.4268 47.7519 83.1411 48.0284 82.7724 48.222C82.413 48.4155 81.9706 48.5123 81.4452 48.5123ZM87.2792 51.3188V49.4386H88.8552C89.0948 49.4386 89.2976 49.4063 89.4635 49.3418C89.6294 49.2865 89.763 49.1897 89.8644 49.0515C89.9658 48.9132 90.0488 48.7243 90.1133 48.4846L91.9797 40.7426H94.0811L91.9658 48.927C91.8184 49.5169 91.611 49.9869 91.3437 50.3372C91.0856 50.6874 90.7354 50.9363 90.293 51.0837C89.8598 51.2404 89.3068 51.3188 88.634 51.3188H87.2792ZM89.6571 48.1528V46.4247H91.2608V48.1528H89.6571ZM88.7446 48.1528L86.422 40.7426H88.6478L90.846 48.1528H88.7446ZM98.2462 48.3187V38.2265H100.472V48.3187H98.2462ZM97.3475 39.8578V38.2265H100.472V39.8578H97.3475ZM107.086 48.3187V46.0791H106.713V43.6459C106.713 43.2588 106.621 42.9684 106.437 42.7749C106.252 42.5813 105.957 42.4846 105.552 42.4846C105.349 42.4846 105.082 42.4892 104.75 42.4984C104.418 42.5076 104.077 42.5214 103.727 42.5399C103.377 42.5583 103.059 42.5767 102.773 42.5952V40.7288C102.985 40.7104 103.234 40.6919 103.519 40.6735C103.805 40.6551 104.1 40.6412 104.404 40.632C104.708 40.6228 104.994 40.6182 105.261 40.6182C106.036 40.6182 106.685 40.7288 107.211 40.95C107.745 41.1712 108.151 41.5076 108.427 41.9592C108.704 42.4016 108.842 42.9731 108.842 43.6735V48.3187H107.086ZM104.667 48.5123C104.123 48.5123 103.644 48.4155 103.229 48.222C102.824 48.0284 102.506 47.7519 102.275 47.3925C102.045 47.0238 101.93 46.586 101.93 46.0791C101.93 45.5261 102.072 45.0745 102.358 44.7242C102.644 44.3648 103.045 44.1021 103.561 43.9362C104.077 43.7611 104.672 43.6735 105.344 43.6735H106.962V44.904H105.331C104.943 44.904 104.644 45.0007 104.432 45.1943C104.229 45.3786 104.128 45.6321 104.128 45.9547C104.128 46.2588 104.229 46.5077 104.432 46.7012C104.644 46.8855 104.943 46.9777 105.331 46.9777C105.579 46.9777 105.801 46.9362 105.994 46.8533C106.197 46.7611 106.363 46.609 106.492 46.3971C106.621 46.1851 106.695 45.8901 106.713 45.5123L107.238 46.0653C107.192 46.5906 107.063 47.033 106.851 47.3925C106.648 47.7519 106.363 48.0284 105.994 48.222C105.635 48.4155 105.192 48.5123 104.667 48.5123ZM114.161 48.4155C113.396 48.4155 112.779 48.3233 112.309 48.139C111.839 47.9455 111.493 47.6275 111.272 47.1851C111.06 46.7335 110.954 46.1252 110.954 45.3602V38.6965H113.014V45.4431C113.014 45.8026 113.106 46.0791 113.29 46.2726C113.484 46.457 113.756 46.5491 114.106 46.5491H115.226V48.4155H114.161ZM109.806 42.3601V40.7426H115.226V42.3601H109.806ZM120.156 48.5814C119.511 48.5814 118.94 48.4708 118.442 48.2496C117.954 48.0284 117.543 47.7335 117.212 47.3648C116.889 46.9869 116.64 46.5676 116.465 46.1067C116.299 45.6367 116.216 45.1574 116.216 44.6689V44.3924C116.216 43.8855 116.299 43.4016 116.465 42.9408C116.64 42.4707 116.889 42.0514 117.212 41.6827C117.534 41.3141 117.935 41.0237 118.414 40.8117C118.903 40.5905 119.456 40.4799 120.073 40.4799C120.884 40.4799 121.566 40.6643 122.119 41.033C122.682 41.3924 123.11 41.8671 123.405 42.4569C123.7 43.0376 123.848 43.6735 123.848 44.3648V45.1113H117.142V43.8533H122.507L121.788 44.4339C121.788 43.9823 121.723 43.5952 121.594 43.2726C121.465 42.95 121.272 42.7058 121.013 42.5399C120.765 42.3648 120.451 42.2772 120.073 42.2772C119.686 42.2772 119.359 42.3648 119.092 42.5399C118.824 42.715 118.622 42.9731 118.483 43.3141C118.345 43.6459 118.276 44.056 118.276 44.5445C118.276 44.9961 118.341 45.3924 118.47 45.7335C118.599 46.0653 118.801 46.3233 119.078 46.5077C119.354 46.692 119.714 46.7842 120.156 46.7842C120.562 46.7842 120.894 46.7058 121.152 46.5491C121.41 46.3924 121.585 46.1989 121.677 45.9685H123.709C123.599 46.4754 123.382 46.927 123.06 47.3233C122.737 47.7196 122.331 48.0284 121.843 48.2496C121.354 48.4708 120.792 48.5814 120.156 48.5814ZM125.313 48.3187V40.7426H127.069V43.9915H127.028C127.028 42.9224 127.253 42.0975 127.705 41.5168C128.166 40.9362 128.83 40.6459 129.696 40.6459H129.986V42.5537H129.433C128.825 42.5537 128.355 42.7196 128.023 43.0514C127.691 43.374 127.525 43.844 127.525 44.4616V48.3187H125.313Z" fill="#0094FF"/>
</svg>
